<mxfile host="Electron" agent="Mozilla/5.0 (Windows NT 10.0; Win64; x64) AppleWebKit/537.36 (KHTML, like Gecko) draw.io/26.1.1 Chrome/132.0.6834.210 Electron/34.3.3 Safari/537.36" version="26.1.1">
  <diagram name="Page-1" id="CcnyJizDlQNZPq71w_h8">
    <mxGraphModel dx="989" dy="582" grid="0" gridSize="10" guides="1" tooltips="1" connect="1" arrows="1" fold="1" page="1" pageScale="1" pageWidth="1100" pageHeight="850" background="#ffffff" math="0" shadow="0">
      <root>
        <mxCell id="0" />
        <mxCell id="1" parent="0" />
        <mxCell id="83YWraWkJJTRJ88vUdBI-1" value="&lt;span style=&quot;font-size: 30px;&quot;&gt;&lt;b&gt;Data Integration&amp;nbsp;&lt;/b&gt;&lt;/span&gt;" style="text;html=1;align=left;verticalAlign=middle;whiteSpace=wrap;rounded=0;fillColor=none;strokeColor=none;" parent="1" vertex="1">
          <mxGeometry x="40" y="120" width="370" height="60" as="geometry" />
        </mxCell>
        <mxCell id="83YWraWkJJTRJ88vUdBI-2" value="" style="rounded=1;whiteSpace=wrap;html=1;dashed=1;fillColor=none;" parent="1" vertex="1">
          <mxGeometry x="80" y="230" width="430" height="340" as="geometry" />
        </mxCell>
        <mxCell id="5g3-Wyd2gkGdJgBPMF9S-2" value="crm_cust_info" style="swimlane;fontStyle=0;childLayout=stackLayout;horizontal=1;startSize=30;horizontalStack=0;resizeParent=1;resizeParentMax=0;resizeLast=0;collapsible=1;marginBottom=0;whiteSpace=wrap;html=1;fillColor=#dae8fc;strokeColor=#6c8ebf;" vertex="1" parent="1">
          <mxGeometry x="300" y="410" width="130" height="90" as="geometry" />
        </mxCell>
        <mxCell id="5g3-Wyd2gkGdJgBPMF9S-3" value="cst_id" style="text;strokeColor=none;fillColor=none;align=left;verticalAlign=middle;spacingLeft=4;spacingRight=4;overflow=hidden;points=[[0,0.5],[1,0.5]];portConstraint=eastwest;rotatable=0;whiteSpace=wrap;html=1;" vertex="1" parent="5g3-Wyd2gkGdJgBPMF9S-2">
          <mxGeometry y="30" width="130" height="30" as="geometry" />
        </mxCell>
        <mxCell id="5g3-Wyd2gkGdJgBPMF9S-24" value="cst_key" style="text;strokeColor=none;fillColor=none;align=left;verticalAlign=middle;spacingLeft=4;spacingRight=4;overflow=hidden;points=[[0,0.5],[1,0.5]];portConstraint=eastwest;rotatable=0;whiteSpace=wrap;html=1;" vertex="1" parent="5g3-Wyd2gkGdJgBPMF9S-2">
          <mxGeometry y="60" width="130" height="30" as="geometry" />
        </mxCell>
        <mxCell id="5g3-Wyd2gkGdJgBPMF9S-6" value="crm_sales_details" style="swimlane;fontStyle=0;childLayout=stackLayout;horizontal=1;startSize=30;horizontalStack=0;resizeParent=1;resizeParentMax=0;resizeLast=0;collapsible=1;marginBottom=0;whiteSpace=wrap;html=1;fillColor=#dae8fc;strokeColor=#6c8ebf;" vertex="1" parent="1">
          <mxGeometry x="110" y="345" width="130" height="90" as="geometry" />
        </mxCell>
        <mxCell id="5g3-Wyd2gkGdJgBPMF9S-7" value="sls_cust_id" style="text;strokeColor=none;fillColor=none;align=left;verticalAlign=middle;spacingLeft=4;spacingRight=4;overflow=hidden;points=[[0,0.5],[1,0.5]];portConstraint=eastwest;rotatable=0;whiteSpace=wrap;html=1;" vertex="1" parent="5g3-Wyd2gkGdJgBPMF9S-6">
          <mxGeometry y="30" width="130" height="30" as="geometry" />
        </mxCell>
        <mxCell id="5g3-Wyd2gkGdJgBPMF9S-8" value="sls_prd_key" style="text;strokeColor=none;fillColor=none;align=left;verticalAlign=middle;spacingLeft=4;spacingRight=4;overflow=hidden;points=[[0,0.5],[1,0.5]];portConstraint=eastwest;rotatable=0;whiteSpace=wrap;html=1;" vertex="1" parent="5g3-Wyd2gkGdJgBPMF9S-6">
          <mxGeometry y="60" width="130" height="30" as="geometry" />
        </mxCell>
        <mxCell id="5g3-Wyd2gkGdJgBPMF9S-9" value="crm_prd_info" style="swimlane;fontStyle=0;childLayout=stackLayout;horizontal=1;startSize=30;horizontalStack=0;resizeParent=1;resizeParentMax=0;resizeLast=0;collapsible=1;marginBottom=0;whiteSpace=wrap;html=1;fillColor=#dae8fc;strokeColor=#6c8ebf;" vertex="1" parent="1">
          <mxGeometry x="300" y="290" width="130" height="60" as="geometry" />
        </mxCell>
        <mxCell id="5g3-Wyd2gkGdJgBPMF9S-10" value="prd_key" style="text;strokeColor=none;fillColor=none;align=left;verticalAlign=middle;spacingLeft=4;spacingRight=4;overflow=hidden;points=[[0,0.5],[1,0.5]];portConstraint=eastwest;rotatable=0;whiteSpace=wrap;html=1;" vertex="1" parent="5g3-Wyd2gkGdJgBPMF9S-9">
          <mxGeometry y="30" width="130" height="30" as="geometry" />
        </mxCell>
        <mxCell id="5g3-Wyd2gkGdJgBPMF9S-14" value="" style="rounded=1;whiteSpace=wrap;html=1;dashed=1;fillColor=none;" vertex="1" parent="1">
          <mxGeometry x="560" y="220" width="340" height="350" as="geometry" />
        </mxCell>
        <mxCell id="5g3-Wyd2gkGdJgBPMF9S-15" value="&lt;span style=&quot;font-size: 19px;&quot;&gt;&lt;b&gt;ERP&lt;/b&gt;&lt;/span&gt;" style="text;html=1;align=center;verticalAlign=middle;whiteSpace=wrap;rounded=1;fillColor=#fff2cc;strokeColor=#d6b656;" vertex="1" parent="1">
          <mxGeometry x="670" y="200" width="150" height="50" as="geometry" />
        </mxCell>
        <mxCell id="5g3-Wyd2gkGdJgBPMF9S-16" value="erp_ cust_az12" style="swimlane;fontStyle=0;childLayout=stackLayout;horizontal=1;startSize=30;horizontalStack=0;resizeParent=1;resizeParentMax=0;resizeLast=0;collapsible=1;marginBottom=0;whiteSpace=wrap;html=1;fillColor=#fff2cc;strokeColor=#d6b656;" vertex="1" parent="1">
          <mxGeometry x="680" y="400" width="130" height="60" as="geometry" />
        </mxCell>
        <mxCell id="5g3-Wyd2gkGdJgBPMF9S-17" value="cid" style="text;strokeColor=none;fillColor=none;align=left;verticalAlign=middle;spacingLeft=4;spacingRight=4;overflow=hidden;points=[[0,0.5],[1,0.5]];portConstraint=eastwest;rotatable=0;whiteSpace=wrap;html=1;" vertex="1" parent="5g3-Wyd2gkGdJgBPMF9S-16">
          <mxGeometry y="30" width="130" height="30" as="geometry" />
        </mxCell>
        <mxCell id="5g3-Wyd2gkGdJgBPMF9S-19" value="erp_ loc_a101" style="swimlane;fontStyle=0;childLayout=stackLayout;horizontal=1;startSize=30;horizontalStack=0;resizeParent=1;resizeParentMax=0;resizeLast=0;collapsible=1;marginBottom=0;whiteSpace=wrap;html=1;fillColor=#fff2cc;strokeColor=#d6b656;" vertex="1" parent="1">
          <mxGeometry x="680" y="500" width="130" height="60" as="geometry">
            <mxRectangle x="680" y="500" width="111" height="30" as="alternateBounds" />
          </mxGeometry>
        </mxCell>
        <mxCell id="5g3-Wyd2gkGdJgBPMF9S-20" value="cid" style="text;strokeColor=none;fillColor=none;align=left;verticalAlign=middle;spacingLeft=4;spacingRight=4;overflow=hidden;points=[[0,0.5],[1,0.5]];portConstraint=eastwest;rotatable=0;whiteSpace=wrap;html=1;" vertex="1" parent="5g3-Wyd2gkGdJgBPMF9S-19">
          <mxGeometry y="30" width="130" height="30" as="geometry" />
        </mxCell>
        <mxCell id="5g3-Wyd2gkGdJgBPMF9S-28" style="edgeStyle=orthogonalEdgeStyle;rounded=0;orthogonalLoop=1;jettySize=auto;html=1;entryX=0;entryY=0.5;entryDx=0;entryDy=0;endArrow=none;startFill=0;" edge="1" parent="1" source="5g3-Wyd2gkGdJgBPMF9S-24" target="5g3-Wyd2gkGdJgBPMF9S-17">
          <mxGeometry relative="1" as="geometry">
            <Array as="points">
              <mxPoint x="540" y="485" />
              <mxPoint x="540" y="425" />
            </Array>
          </mxGeometry>
        </mxCell>
        <mxCell id="5g3-Wyd2gkGdJgBPMF9S-29" style="edgeStyle=orthogonalEdgeStyle;rounded=0;orthogonalLoop=1;jettySize=auto;html=1;entryX=0;entryY=0.5;entryDx=0;entryDy=0;endArrow=none;startFill=0;" edge="1" parent="1" source="5g3-Wyd2gkGdJgBPMF9S-24" target="5g3-Wyd2gkGdJgBPMF9S-20">
          <mxGeometry relative="1" as="geometry">
            <Array as="points">
              <mxPoint x="540" y="485" />
              <mxPoint x="540" y="525" />
            </Array>
          </mxGeometry>
        </mxCell>
        <mxCell id="5g3-Wyd2gkGdJgBPMF9S-30" style="edgeStyle=orthogonalEdgeStyle;rounded=0;orthogonalLoop=1;jettySize=auto;html=1;entryX=1;entryY=0.5;entryDx=0;entryDy=0;endArrow=none;startFill=0;" edge="1" parent="1" source="5g3-Wyd2gkGdJgBPMF9S-3" target="5g3-Wyd2gkGdJgBPMF9S-7">
          <mxGeometry relative="1" as="geometry" />
        </mxCell>
        <mxCell id="5g3-Wyd2gkGdJgBPMF9S-32" value="erp_ px_cat_g1v2" style="swimlane;fontStyle=0;childLayout=stackLayout;horizontal=1;startSize=30;horizontalStack=0;resizeParent=1;resizeParentMax=0;resizeLast=0;collapsible=1;marginBottom=0;whiteSpace=wrap;html=1;fillColor=#fff2cc;strokeColor=#d6b656;" vertex="1" parent="1">
          <mxGeometry x="680" y="290" width="130" height="60" as="geometry" />
        </mxCell>
        <mxCell id="5g3-Wyd2gkGdJgBPMF9S-33" value="id" style="text;strokeColor=none;fillColor=none;align=left;verticalAlign=middle;spacingLeft=4;spacingRight=4;overflow=hidden;points=[[0,0.5],[1,0.5]];portConstraint=eastwest;rotatable=0;whiteSpace=wrap;html=1;" vertex="1" parent="5g3-Wyd2gkGdJgBPMF9S-32">
          <mxGeometry y="30" width="130" height="30" as="geometry" />
        </mxCell>
        <mxCell id="5g3-Wyd2gkGdJgBPMF9S-34" style="edgeStyle=orthogonalEdgeStyle;rounded=0;orthogonalLoop=1;jettySize=auto;html=1;entryX=0;entryY=0.5;entryDx=0;entryDy=0;endArrow=none;startFill=0;" edge="1" parent="1" source="5g3-Wyd2gkGdJgBPMF9S-8" target="5g3-Wyd2gkGdJgBPMF9S-10">
          <mxGeometry relative="1" as="geometry" />
        </mxCell>
        <mxCell id="5g3-Wyd2gkGdJgBPMF9S-36" style="edgeStyle=orthogonalEdgeStyle;rounded=0;orthogonalLoop=1;jettySize=auto;html=1;endArrow=none;startFill=0;" edge="1" parent="1" source="5g3-Wyd2gkGdJgBPMF9S-33" target="5g3-Wyd2gkGdJgBPMF9S-10">
          <mxGeometry relative="1" as="geometry" />
        </mxCell>
        <mxCell id="5g3-Wyd2gkGdJgBPMF9S-37" value="&lt;font style=&quot;font-size: 10px;&quot;&gt;Current &amp;amp; History Product Info&lt;/font&gt;" style="text;html=1;align=center;verticalAlign=middle;whiteSpace=wrap;rounded=0;" vertex="1" parent="1">
          <mxGeometry x="270" y="270" width="190" height="20" as="geometry" />
        </mxCell>
        <mxCell id="5g3-Wyd2gkGdJgBPMF9S-39" value="&lt;font style=&quot;font-size: 10px;&quot;&gt;Customer Information&lt;/font&gt;" style="text;html=1;align=center;verticalAlign=middle;whiteSpace=wrap;rounded=0;" vertex="1" parent="1">
          <mxGeometry x="290" y="390" width="150" height="20" as="geometry" />
        </mxCell>
        <mxCell id="5g3-Wyd2gkGdJgBPMF9S-40" value="&lt;font style=&quot;font-size: 10px;&quot;&gt;Transactional Records about Sales and Orders&lt;/font&gt;" style="text;html=1;align=center;verticalAlign=middle;whiteSpace=wrap;rounded=0;" vertex="1" parent="1">
          <mxGeometry x="100" y="310" width="150" height="35" as="geometry" />
        </mxCell>
        <mxCell id="5g3-Wyd2gkGdJgBPMF9S-42" value="&lt;font style=&quot;font-size: 10px;&quot;&gt;Product Categories&lt;/font&gt;" style="text;html=1;align=center;verticalAlign=middle;whiteSpace=wrap;rounded=0;" vertex="1" parent="1">
          <mxGeometry x="670" y="270" width="150" height="20" as="geometry" />
        </mxCell>
        <mxCell id="5g3-Wyd2gkGdJgBPMF9S-43" value="&lt;font style=&quot;font-size: 10px;&quot;&gt;Customer Information&amp;nbsp;&lt;/font&gt;&lt;div&gt;&lt;font style=&quot;font-size: 10px;&quot;&gt;(Birthdate and Gender)&lt;/font&gt;&lt;/div&gt;" style="text;html=1;align=center;verticalAlign=middle;whiteSpace=wrap;rounded=0;" vertex="1" parent="1">
          <mxGeometry x="670" y="370" width="150" height="30" as="geometry" />
        </mxCell>
        <mxCell id="5g3-Wyd2gkGdJgBPMF9S-44" value="&lt;span style=&quot;font-size: 10px;&quot;&gt;Customer Information (Country)&lt;/span&gt;" style="text;html=1;align=center;verticalAlign=middle;whiteSpace=wrap;rounded=0;" vertex="1" parent="1">
          <mxGeometry x="670" y="480" width="150" height="20" as="geometry" />
        </mxCell>
        <mxCell id="5g3-Wyd2gkGdJgBPMF9S-45" value="&lt;span style=&quot;font-size: 19px;&quot;&gt;&lt;b&gt;CRM&lt;/b&gt;&lt;/span&gt;" style="text;html=1;align=center;verticalAlign=middle;whiteSpace=wrap;rounded=1;fillColor=#dae8fc;strokeColor=#6c8ebf;" vertex="1" parent="1">
          <mxGeometry x="230" y="200" width="150" height="50" as="geometry" />
        </mxCell>
      </root>
    </mxGraphModel>
  </diagram>
</mxfile>
